<svg xmlns="http://www.w3.org/2000/svg" width="1512" height="755" fill="none"><g clip-path="url(#a)"><path fill="#018C79" d="M0 0h1512v755H0z"/><path fill="#27A694" d="m802.8 756.392-30.356-23.716-30.627-23.852L612.26 607.591l-30.492-23.851-22.903-17.889L528.374 542l-27.104 20.734-24.8 18.973-27.104 20.735-297.601 227.537-27.104 20.734-34.557 26.426L63 897.874l30.492 23.851 22.903 17.889 30.627 23.851L276.443 1064.7l30.492 23.85 30.356 23.72 26.562 20.73 27.104-20.73 34.557-26.43 27.104-20.74 297.601-227.532 27.104-20.735 24.8-18.972 27.104-20.735-26.427-20.734Zm-51.904 39.842-27.103 20.735-297.601 227.401-27.104 20.73-34.557 26.43-30.357-23.71-30.627-23.86L173.99 942.731l-30.491-23.852-22.903-17.888 34.557-26.426 27.104-20.735 297.601-227.537 27.104-20.734 24.8-18.973 22.902 17.888 30.492 23.852 129.557 101.233 30.492 23.851 30.356 23.716-24.665 19.108Z"/><path fill="#D7DE27" fill-opacity=".4" d="M689.912 748.531 560.356 647.298l-30.492-23.851-27.104 20.734-297.6 227.538-27.104 20.734 30.492 23.851 129.556 101.236 30.492 23.85 27.104-20.74 297.6-227.533 27.104-20.734-30.492-23.852ZM365.343 996.803 235.787 895.705l297.465-227.537 129.556 101.233-297.465 227.402Z"/><path fill="#27A694" d="m585.698 753.275-26.833-21.006-23.851-18.702-6.776-5.285-27.104 20.735-202.602 155.169 6.776 5.286 23.852 18.701 26.832 21.006 30.628 23.851 27.104-20.734 175.497-134.164 27.104-20.735-30.627-24.122ZM383.096 908.309l-26.833-21.006 175.498-134.164 26.833 21.006-175.498 134.164ZM1336.8 785.392l-30.36-23.716-30.62-23.852-129.56-101.233-30.49-23.851-22.9-17.889-30.5-23.851-27.1 20.734-24.8 18.973-27.104 20.735-297.601 227.537-27.104 20.734-34.557 26.426L597 926.874l30.492 23.851 22.903 17.889 30.627 23.851L810.443 1093.7l30.492 23.85 30.356 23.72 26.562 20.73 27.104-20.73 34.557-26.43 27.104-20.74 297.602-227.532 27.1-20.735 24.8-18.972 27.11-20.735-26.43-20.734Zm-51.9 39.842-27.11 20.735-297.598 227.401-27.104 20.73-34.557 26.43-30.357-23.71-30.627-23.86L707.99 971.731l-30.491-23.852-22.903-17.888 34.557-26.426 27.104-20.735 297.603-227.537 27.1-20.734 24.8-18.973 22.9 17.888 30.5 23.852 129.55 101.233 30.49 23.851 30.36 23.716-24.66 19.108Z"/><path fill="#D7DE27" fill-opacity=".4" d="m1223.91 777.531-129.55-101.233-30.5-23.851-27.1 20.734-297.6 227.538-27.104 20.734 30.492 23.851 129.556 101.236 30.492 23.85 27.104-20.74 297.6-227.533 27.1-20.734-30.49-23.852ZM899.343 1025.8 769.787 924.705l297.463-227.537 129.56 101.233L899.343 1025.8Z"/><path fill="#27A694" d="m1119.7 782.275-26.84-21.006-23.85-18.702-6.77-5.285-27.11 20.735-202.598 155.169 6.776 5.286 23.852 18.701 26.832 21.006 30.628 23.851 27.104-20.734 175.496-134.164 27.11-20.735-30.63-24.122ZM917.096 937.309l-26.833-21.006 175.497-134.164 26.83 21.006-175.494 134.164ZM178.4 138.257l-18.5 17.963-16.8 16.493h-.1l-18.4 17.964-20.9-14.077-24-15.968-3.2-2.206-24.1-16.178-18.1-12.185-.1.105-24.1-16.178-56.8-38.133-109.9 107.256-23.2-15.547-1-.631 110-107.151 18.5-18.069 24.1 16.178 56.8 38.133v-.105L52.7 112.1l18.2 12.186L95 140.358l27.2 18.278 16.8-16.388-23.9-16.072L91 109.998-11.3 41.4l-24.1-16.178-18.1-12.08-16.9 16.492-18.5 17.964-110 107.152-2-1.366-18.9-12.606-3.2-2.206L-113 31.42l18.5-17.963 16.9-16.493L-59.2-21l24.1 16.178 18.2 12.08L7.2 23.437 109.4 91.93l24.1 16.178 24 16.073 20.9 14.077Z"/><path fill="#27A694" d="m161.4 271.257-18.5 17.963-16.8 16.493h-.1l-18.4 17.964L86.7 309.6l-24-15.968-3.2-2.206-24.1-16.178-18.1-12.185-.1.105-24.1-16.178-56.8-38.133-109.9 107.256-23.2-15.547-1-.631 110-107.151 18.5-18.069 24.1 16.178 56.8 38.133v-.105l24.1 16.178 18.2 12.186L78 273.358l27.2 18.278 16.8-16.388-23.9-16.072L74 242.998-28.3 174.4l-24.1-16.178-18.1-12.081-16.9 16.493-18.5 17.964-110 107.152-2-1.366-18.9-12.606-3.2-2.206 110-107.152 18.5-17.963 16.9-16.493L-76.2 112l24.1 16.178 18.2 12.081 24.1 16.177 102.2 68.493 24.1 16.178 24 16.073 20.9 14.077Z"/></g><defs><clipPath id="a"><path fill="#fff" d="M0 0h1512v755H0z"/></clipPath></defs></svg>